LSLDJ_XZ.mot
version=1
datacolumns 20
datarows 35
range 0.680000 1.020000
inDegrees=yes
endheader
time	pelvis_tilt	pelvis_list	pelvis_rotation	hip_flexion_r	hip_adduction_r	hip_rotation_r	knee_angle_r	ankle_angle_r	hip_flexion_l	hip_adduction_l	hip_rotation_l	knee_angle_l	ankle_angle_l	pelvis_tx	pelvis_ty	pelvis_tz	lumbar_bending	lumbar_rotation	lumbar_extension
0.680000	-17.146229	-1.284450	-3.371104	71.757106	-0.588496	-2.643069	-73.647461	7.338041	49.403968	1.862160	-4.178888	-60.472392	18.968647	0.230442	0.883797	0.211921	-0.570964	-6.215013	0.027671
0.690000	-16.937753	-1.271888	-3.545973	72.296474	-0.396251	-2.745584	-74.739703	7.227781	48.682476	1.898019	-3.933329	-60.318123	19.367850	0.235082	0.884365	0.213013	-0.857920	-6.150123	0.358237
0.700000	-16.758230	-1.301891	-3.822159	72.824086	-0.151415	-2.900295	-75.867961	7.191269	47.858725	1.835612	-3.614318	-59.907343	19.554080	0.239824	0.886250	0.214019	-1.038212	-5.997506	0.802458
0.710000	-16.588390	-1.393195	-4.197415	73.308963	0.152063	-3.123981	-76.980865	7.201291	46.924074	1.633520	-3.252775	-59.239669	19.502772	0.244574	0.889496	0.214942	-1.118550	-5.756893	1.322946
0.720000	-16.403105	-1.555723	-4.659138	73.717612	0.507319	-3.423352	-78.047158	7.242339	45.838015	1.269105	-2.889129	-58.281317	19.214287	0.249284	0.894137	0.215796	-1.114034	-5.433815	1.880320
0.730000	-16.177843	-1.790579	-5.190297	74.021117	0.900747	-3.789700	-79.055433	7.306432	44.543212	0.738154	-2.563360	-56.980062	18.704175	0.253957	0.900179	0.216600	-1.044454	-5.038100	2.439384
0.740000	-15.897106	-2.093726	-5.774810	74.203216	1.318424	-4.201532	-80.009656	7.382050	42.985188	0.049897	-2.308063	-55.281002	17.987736	0.258631	0.907587	0.217373	-0.929941	-4.579697	2.976253
0.750000	-15.561306	-2.461663	-6.399960	74.265970	1.749841	-4.634606	-80.923365	7.450932	41.129839	-0.779050	-2.147797	-53.139680	17.071865	0.263368	0.916292	0.218127	-0.787435	-4.062730	3.482666
0.760000	-15.190049	-2.896548	-7.054236	74.231312	2.187178	-5.073445	-81.815075	7.497569	38.974741	-1.728782	-2.102108	-50.530166	15.955860	0.268234	0.926188	0.218859	-0.630132	-3.480075	3.966347
0.770000	-14.819542	-3.408566	-7.724143	74.136961	2.623529	-5.516525	-82.704675	7.514944	36.551528	-2.779465	-2.186065	-47.447562	14.626044	0.273286	0.937148	0.219556	-0.468008	-2.811316	4.446700
0.780000	-14.491874	-4.014410	-8.392137	74.025126	3.051170	-5.973251	-83.611151	7.500629	33.918467	-3.913561	-2.405200	-43.909645	13.042304	0.278553	0.949031	0.220195	-0.308930	-2.026501	4.944596
0.790000	-14.243330	-4.731670	-9.034324	73.932037	3.457645	-6.457717	-84.553102	7.453787	31.152836	-5.114280	-2.751675	-39.963318	11.133435	0.284028	0.961687	0.220755	-0.162388	-1.095417	5.473402
0.800000	-14.097909	-5.571852	-9.620048	73.883139	3.823193	-6.983227	-85.549437	7.375499	28.347896	-6.362344	-3.203191	-35.693845	8.809655	0.289668	0.974956	0.221224	-0.043248	0.001851	6.036220
0.810000	-14.063488	-6.534950	-10.117207	73.889666	4.125369	-7.555377	-86.617097	7.271096	25.608132	-7.635031	-3.723230	-31.230614	5.991898	0.295402	0.988669	0.221608	0.030250	1.266798	6.625282
0.820000	-14.133542	-7.603412	-10.502680	73.950738	4.349005	-8.162946	-87.767539	7.156757	23.043795	-8.904406	-4.270587	-26.744613	2.656306	0.301137	1.002650	0.221936	0.045478	2.675823	7.225542
0.830000	-14.292006	-8.737966	-10.771346	74.058193	4.494753	-8.778396	-89.002395	7.059146	20.761956	-10.133954	-4.804298	-22.434358	-1.126363	0.306775	1.016730	0.222264	0.005745	4.176942	7.819118
0.840000	-14.514248	-9.881697	-10.936325	74.195461	4.580354	-9.371492	-90.308407	7.000990	18.850740	-11.280102	-5.272821	-18.502422	-5.180992	0.312217	1.030758	0.222662	-0.065661	5.694476	8.383062
0.850000	-14.770003	-10.968384	-11.020997	74.338961	4.632716	-9.912247	-91.657129	6.993440	17.368492	-12.296967	-5.620050	-15.129660	-9.250849	0.317365	1.044613	0.223203	-0.129685	7.138742	8.888656
0.860000	-15.029828	-11.931889	-11.049018	74.464865	4.676592	-10.356670	-93.010972	7.043471	16.340878	-13.141075	-5.813580	-12.451914	-13.049823	0.322135	1.058197	0.223953	-0.141230	8.418554	9.306102
0.870000	-15.267640	-12.719653	-11.035578	74.551307	4.726352	-10.648207	-94.330542	7.157531	15.758964	-13.779869	-5.854095	-10.542263	-16.329341	0.326459	1.071426	0.224953	-0.062454	9.458555	9.607229
0.880000	-15.461622	-13.305735	-10.983942	74.577828	4.784239	-10.747697	-95.579904	7.336717	15.581263	-14.202251	-5.759717	-9.401091	-18.925013	0.330295	1.084204	0.226217	0.125280	10.216812	9.767873
0.890000	-15.596884	-13.696438	-10.890943	74.526238	4.847257	-10.660208	-96.728213	7.574695	15.740866	-14.424874	-5.555796	-8.954929	-20.768038	0.333624	1.096425	0.227725	0.418115	10.694607	9.772429
0.900000	-15.666341	-13.927563	-10.755354	74.380376	4.917152	-10.432507	-97.748438	7.860979	16.153883	-14.490386	-5.278414	-9.066264	-21.875205	0.336466	1.107971	0.229432	0.794341	10.934632	9.615983
0.910000	-15.670554	-14.053465	-10.581308	74.127678	5.004007	-10.127539	-98.616470	8.184430	16.731955	-14.456639	-4.975443	-9.555714	-22.329368	0.338869	1.118734	0.231281	1.221262	11.006906	9.304494
0.920000	-15.618945	-14.130722	-10.377058	73.765454	5.122394	-9.796162	-99.312390	8.533127	17.398390	-14.380935	-4.698254	-10.231475	-22.254991	0.340899	1.128629	0.233212	1.662460	10.986887	8.855534
0.930000	-15.528549	-14.204012	-10.151749	73.304838	5.284488	-9.462380	-99.822802	8.891896	18.098517	-14.306525	-4.491548	-10.917487	-21.792971	0.342633	1.137600	0.235175	2.084638	10.935479	8.296022
0.940000	-15.419435	-14.300188	-9.911926	72.768156	5.494090	-9.127815	-100.142601	9.242155	18.800622	-14.256802	-4.386054	-11.474337	-21.078319	0.344142	1.145615	0.237136	2.462000	10.889650	7.656920
0.950000	-15.310720	-14.430788	-9.660102	72.182667	5.744919	-8.786578	-100.275286	9.567586	19.491675	-14.238148	-4.394359	-11.810202	-20.227202	0.345494	1.152656	0.239074	2.777947	10.865512	6.969456
0.960000	-15.217614	-14.596615	-9.396510	71.574177	6.022943	-8.435429	-100.232988	9.863751	20.170367	-14.245264	-4.511023	-11.882213	-19.338283	0.346750	1.158709	0.240979	3.026244	10.866256	6.263409
0.970000	-15.149052	-14.788430	-9.122424	70.963371	6.308899	-8.076245	-100.037284	10.143010	20.840047	-14.262668	-4.717168	-11.691627	-18.496488	0.347963	1.163758	0.242853	3.211944	10.886436	5.565981
0.980000	-15.108042	-14.988091	-8.842056	70.366077	6.580487	-7.716067	-99.718475	10.427954	21.505665	-14.267107	-4.987569	-11.276509	-17.765616	0.349176	1.167789	0.244697	3.349183	10.914845	4.901466
0.990000	-15.094157	-15.175544	-8.561079	69.794624	6.815955	-7.365745	-99.311189	10.737115	22.174123	-14.236223	-5.297542	-10.702525	-17.175831	0.350421	1.170792	0.246515	3.454942	10.940422	4.290591
1.000000	-15.105302	-15.336053	-8.283603	69.258707	6.997998	-7.035185	-98.848755	11.072155	22.854070	-14.156924	-5.627232	-10.050992	-16.721331	0.351726	1.172772	0.248311	3.542783	10.956492	3.748286
1.010000	-15.138351	-15.462040	-8.011295	68.766364	7.116664	-6.727210	-98.359254	11.413773	23.553796	-14.027412	-5.962774	-9.405341	-16.372120	0.353109	1.173741	0.250094	3.621005	10.959733	3.281216
1.020000	-15.189380	-15.552811	-7.744666	68.323897	7.170973	-6.440049	-97.862916	11.728266	24.278492	-13.856073	-6.294578	-8.839487	-16.087886	0.354580	1.173719	0.251875	3.694355	10.948539	2.886404
